<?xml version="1.0" encoding="utf-8"?>
<!-- Generator: Adobe Illustrator 16.0.0, SVG Export Plug-In . SVG Version: 6.00 Build 0)  -->
<!DOCTYPE svg PUBLIC "-//W3C//DTD SVG 1.1//EN" "http://www.w3.org/Graphics/SVG/1.1/DTD/svg11.dtd">
<svg version="1.1" id="Layer_1" xmlns="http://www.w3.org/2000/svg" xmlns:xlink="http://www.w3.org/1999/xlink" x="0px" y="0px"
	 width="144px" height="144px" viewBox="0 0 144 144" enable-background="new 0 0 144 144" xml:space="preserve">
<path d="M95.164,52.289c0.953-0.953,0.953-2.5,0-3.453c-0.957-0.957-2.5-0.957-3.453,0L72,68.547L52.287,48.836
	c-0.955-0.957-2.5-0.957-3.455,0c-0.951,0.953-0.951,2.5,0,3.453L68.549,72L48.836,91.707c-0.951,0.957-0.951,2.5,0,3.457
	c0.477,0.48,1.1,0.715,1.729,0.715c0.623,0,1.248-0.234,1.723-0.715L72,75.453l19.711,19.711c0.473,0.48,1.102,0.715,1.727,0.715
	s1.25-0.234,1.723-0.715c0.949-0.957,0.949-2.5,0-3.457L75.447,72L95.164,52.289z M139.117,72.004
	c0,37.004-30.109,67.117-67.117,67.117S4.885,109.008,4.885,72.004C4.885,34.996,34.992,4.883,72,4.883
	S139.117,34.996,139.117,72.004 M144,72.004C144,32.301,111.703,0,72,0S0,32.301,0,72.004C0,111.703,32.297,144,72,144
	C111.699,144,144,111.703,144,72.004"/>
</svg>
