<?xml version="1.0" encoding="utf-8"?>
<!-- Generator: Adobe Illustrator 16.0.0, SVG Export Plug-In . SVG Version: 6.00 Build 0)  -->
<!DOCTYPE svg PUBLIC "-//W3C//DTD SVG 1.1//EN" "http://www.w3.org/Graphics/SVG/1.1/DTD/svg11.dtd">
<svg version="1.1" id="Layer_1" xmlns="http://www.w3.org/2000/svg" xmlns:xlink="http://www.w3.org/1999/xlink" x="0px" y="0px"
	 width="144px" height="144px" viewBox="0 0 144 144" enable-background="new 0 0 144 144" xml:space="preserve">
<path d="M45.034,81h-0.02v0.005C45.021,81.005,45.03,81,45.034,81 M102.516,72H94.5v31.5H78.64V86.91H65.36v16.59H49.5V72h-8.015
	L72,41.414L102.516,72z M108.035,72c0-2.193-1.596-3.933-3.674-4.333L73.05,36.419c-0.722-0.72-1.446-0.72-2.168,0l-31.35,31.283
	c-1.772,0.419-3.091,1.827-3.365,3.651c-0.081,0.215-0.208,0.42-0.217,0.646h0.086c0,2.483,2.016,4.5,4.5,4.5h4.5V81v22.5
	c0,2.483,2.016,4.5,4.5,4.5h9h0.002h35.997c2.484,0,4.5-2.017,4.5-4.5v-27h4.5C106.02,76.5,108.035,74.483,108.035,72 M139.5,72.002
	c0,37.277-30.221,67.498-67.5,67.498c-37.278,0-67.5-30.221-67.5-67.498C4.5,34.723,34.722,4.5,72,4.5
	C109.279,4.5,139.5,34.723,139.5,72.002 M144,72c0-39.764-32.236-72-72-72S0,32.236,0,72s32.236,72,72,72S144,111.764,144,72"/>
</svg>
