<svg version="1.1" xmlns="http://www.w3.org/2000/svg" x="0" y="0" viewBox="0 0 144 144" enable-background="new 0 0 144 144" xml:space="preserve"><path fill="#ffffff" d="M37.797,92.961c-3.584,3.576-3.584,9.381,0,12.967c3.584,3.582,9.398,3.582,12.975,0l17.854-17.852l2.355-2.352 c0.041-0.049,0.078-0.109,0.125-0.16l-2.965-2.971l-21.205,21.201c-0.504,0.514-1.33,0.514-1.842,0c-0.52-0.516-0.52-1.346,0-1.857 L66.281,80.75l-3.309-3.311l-21.18,21.191c-0.52,0.516-1.35,0.516-1.859,0c-0.51-0.504-0.51-1.34,0-1.852l21.188-21.188 l-2.963-2.977c-0.049,0.055-0.1,0.086-0.15,0.139L37.797,92.961z M106.688,41.807c1.461-2.209,2.258-4.387,1.789-4.859l-0.852-0.85 c0,0-0.375-0.385-0.844-0.85c-0.467-0.471-2.648,0.326-4.859,1.785l-5.689,3.744c-2.209,1.461-4.24,3.764-4.537,5.156l-0.531,2.508 L76.176,63.34l4.102,4.104l15.004-14.895c0,0,1.125-0.232,2.508-0.521c1.391-0.297,3.695-2.33,5.156-4.539L106.688,41.807z M103.359,99.67c0,2.035-1.654,3.688-3.689,3.688c-2.039,0-3.689-1.652-3.689-3.688c0-2.041,1.65-3.695,3.689-3.695 C101.705,95.975,103.359,97.629,103.359,99.67 M106.518,106.514c3.254-3.252,3.146-8.631-0.238-12.01 c-0.41-0.41-24.547-22.039-35.562-33.051c-2.045-2.049-1.236-3.549-0.816-4.295c2.953-5.213,3.148-10.562-1.842-15.555 c-5.271-5.271-13.887-7.701-21.029-5.908l12.676,12.672c0,0,0,3.779-3.777,7.561c-3.779,3.779-7.559,3.779-7.559,3.779 L35.695,47.029c-1.793,7.143,0.637,15.754,5.908,21.031c4.873,4.871,10.092,4.801,15.191,2.041c0.863-0.465,2.76-1.221,4.918,0.939 c11.211,11.209,32.383,34.832,32.791,35.238C97.887,109.664,103.266,109.77,106.518,106.514 M139.5,72 c0,37.277-30.223,67.5-67.5,67.5S4.5,109.277,4.5,72C4.5,34.721,34.723,4.5,72,4.5S139.5,34.721,139.5,72 M144,72 c0-39.766-32.236-72-72-72S0,32.234,0,72c0,39.764,32.236,72,72,72S144,111.764,144,72"/></svg>
