<?xml version="1.0" encoding="utf-8"?>
<!-- Generator: Adobe Illustrator 16.0.0, SVG Export Plug-In . SVG Version: 6.00 Build 0)  -->
<!DOCTYPE svg PUBLIC "-//W3C//DTD SVG 1.1//EN" "http://www.w3.org/Graphics/SVG/1.1/DTD/svg11.dtd">
<svg version="1.1" id="Layer_1" xmlns="http://www.w3.org/2000/svg" xmlns:xlink="http://www.w3.org/1999/xlink" x="0px" y="0px"
	 width="144px" height="144px" viewBox="0 0 144 144" enable-background="new 0 0 144 144" xml:space="preserve">
<path d="M72,60.75c0,1.245-1.005,2.25-2.25,2.25c-1.241,0-2.25-1.005-2.25-2.25c0-1.242,1.009-2.25,2.25-2.25
	C70.995,58.5,72,59.508,72,60.75 M76.5,60.75c0-3.729-3.021-6.75-6.75-6.75C66.024,54,63,57.021,63,60.75s3.024,6.75,6.75,6.75
	C73.479,67.5,76.5,64.479,76.5,60.75 M87.75,63c-1.241,0-2.25-1.005-2.25-2.25c0-1.242,1.009-2.25,2.25-2.25
	c1.244,0,2.25,1.008,2.25,2.25C90,61.995,88.994,63,87.75,63 M87.75,67.5c3.729,0,6.75-3.021,6.75-6.75S91.479,54,87.75,54
	C84.023,54,81,57.021,81,60.75S84.023,67.5,87.75,67.5 M103.5,88.743l-11.512-8.945c-0.562-0.981-1.738-1.338-2.76-0.948
	c0.004-0.033,0.006-0.068,0.012-0.102H63c-4.971,0-9-4.03-9-9v-18c0-4.971,4.029-9,9-9h31.5c4.97,0,9,4.029,9,9V88.743z M63,83.25
	h13.482c-0.091,4.869-4.07,8.793-8.982,8.793H54.763c0.004,0.034,0.004,0.066,0.008,0.1c-1.02-0.39-2.194-0.033-2.759,0.946
	L40.5,101.99V74.189c0-4.948,4.029-8.957,9-8.957v4.518C49.5,77.203,55.546,83.25,63,83.25 M107.974,92.311
	c0-0.043,0.026-21.789,0.026-22.561v-18c0-7.454-6.047-13.5-13.5-13.5H63c-7.454,0-13.5,6.046-13.5,13.5v9
	c-7.454,0-13.5,6.016-13.5,13.439v8.896c0,0.767,0.024,22.415,0.027,22.458c-0.121,0.875,0.211,1.564,1.028,2.035
	c1.078,0.617,2.068,0.462,3.144-0.607l13.958-10.449H67.5c7.4,0,13.4-5.929,13.491-13.271h8.851l13.959,10.496
	c1.079,1.079,2.068,1.232,3.145,0.613C107.763,93.885,108.094,93.189,107.974,92.311 M139.5,72c0,37.279-30.221,67.5-67.5,67.5
	c-37.278,0-67.5-30.221-67.5-67.5C4.5,34.723,34.722,4.5,72,4.5C109.279,4.5,139.5,34.723,139.5,72 M144,72
	c0-39.764-32.236-72-72-72S0,32.236,0,72s32.236,72,72,72S144,111.764,144,72"/>
</svg>
