<svg version="1.1" xmlns="http://www.w3.org/2000/svg" x="0" y="0" viewBox="0 0 144 144" enable-background="new 0 0 144 144" xml:space="preserve"><path fill="#ffffff" d="M72,54c0,8.699-7.051,15.75-15.75,15.75S40.5,62.699,40.5,54s7.051-15.75,15.75-15.75S72,45.301,72,54 M76.5,54 c0-11.186-9.065-20.25-20.25-20.25C45.064,33.75,36,42.814,36,54s9.064,20.25,20.25,20.25C67.435,74.25,76.5,65.186,76.5,54 M105.75,60.75c0,4.971-4.03,9-9,9c-4.971,0-9-4.029-9-9c0-4.97,4.029-9,9-9C101.72,51.75,105.75,55.78,105.75,60.75 M110.25,60.75 c0-7.454-6.047-13.5-13.5-13.5s-13.5,6.046-13.5,13.5s6.047,13.5,13.5,13.5S110.25,68.204,110.25,60.75 M110.677,99 c-6.465,9.257-16.137,16.098-27.427,18.868V92.25h0.826c1.858-5.232,6.803-9,12.674-9c6.688,0,12.197,4.871,13.271,11.25h0.229V99 H110.677z M78.75,118.764c-2.202,0.317-4.456,0.486-6.75,0.486c-15.363,0-28.988-7.352-37.615-18.708 C36.738,90.628,45.621,83.25,56.25,83.25c11.669,0,21.256,8.881,22.386,20.25h0.114V118.764z M114.328,101.15l0.422-8.9 c-2.008-7.738-9.628-13.5-18-13.5c-8.279,0-15.214,5.607-17.311,13.219C74.729,84.062,66.121,78.75,56.25,78.75 c-11.374,0-21.078,7.044-25.051,17.002c-1.24,4.577,0.052,8.047,0.958,8.68C41.747,116.068,54.72,123.759,72,123.75 C89.767,123.741,105.01,114.79,114.328,101.15 M139.5,72.002c0,37.277-30.221,67.498-67.5,67.498c-37.278,0-67.5-30.221-67.5-67.498 C4.5,34.723,34.722,4.5,72,4.5C109.279,4.5,139.5,34.723,139.5,72.002 M144,72c0-39.764-32.236-72-72-72S0,32.236,0,72 s32.236,72,72,72S144,111.764,144,72"/></svg>
