<?xml version="1.0" encoding="utf-8"?>
<!-- Generator: Adobe Illustrator 16.0.0, SVG Export Plug-In . SVG Version: 6.00 Build 0)  -->
<!DOCTYPE svg PUBLIC "-//W3C//DTD SVG 1.1//EN" "http://www.w3.org/Graphics/SVG/1.1/DTD/svg11.dtd">
<svg version="1.1" id="Layer_1" xmlns="http://www.w3.org/2000/svg" xmlns:xlink="http://www.w3.org/1999/xlink" x="0px" y="0px"
	 width="144px" height="144px" viewBox="0 0 144 144" enable-background="new 0 0 144 144" xml:space="preserve">
<path d="M46.793,45.596c0-2.597,0.689-4.599,2.068-6.006c1.196-1.224,2.721-1.837,4.57-1.837c2.479,0,4.288,0.822,5.434,2.464
	c0.63,0.92,0.97,1.846,1.017,2.774h-3.108c-0.198-0.713-0.451-1.252-0.763-1.615c-0.552-0.646-1.373-0.968-2.46-0.968
	c-1.107,0-1.982,0.455-2.62,1.367c-0.64,0.912-0.96,2.201-0.96,3.869c0,1.67,0.338,2.92,1.014,3.75s1.53,1.246,2.57,1.246
	c1.066,0,1.88-0.356,2.438-1.069c0.31-0.384,0.566-0.959,0.77-1.726h3.089c-0.266,1.621-0.947,2.939-2.043,3.955
	c-1.095,1.017-2.497,1.525-4.209,1.525c-2.116,0-3.779-0.686-4.991-2.059C47.397,49.889,46.793,47.997,46.793,45.596 M41.577,56.11
	h23.521v-21.14H41.577V56.11z M40.1,33.48h26.475v32.474H40.1V33.48z M37.468,68.587h31.738V30.85H37.468V68.587z M46.722,82.665
	h3.664l3.089,6.479l2.957-6.479h3.521l-4.976,9.297v5.578h-3.108v-5.578L46.722,82.665z M41.577,100.676h23.521V79.534H41.577
	V100.676z M40.1,78.044h26.475v32.476H40.1V78.044z M37.468,113.152h31.738v-37.74H37.468V113.152z M85.135,37.967h4.524
	l2.708,11.696l2.687-11.696h4.474v14.875H96.63V42.78c0-0.289,0.004-0.694,0.01-1.216c0.008-0.521,0.011-0.924,0.011-1.205
	l-2.819,12.482h-3.021l-2.799-12.483c0,0.282,0.004,0.684,0.01,1.204c0.006,0.521,0.011,0.928,0.011,1.217v10.062h-2.897V37.967z
	 M80.57,56.11h23.521v-21.14H80.57V56.11z M79.094,33.48h26.475v32.474H79.094V33.48z M76.462,68.587H108.2V30.85H76.462V68.587z
	 M85.763,82.665h3.058v6.129l5.748-6.129h4.018l-6.105,6.12l6.418,8.757h-3.996l-4.584-6.493l-1.498,1.518v4.976h-3.058V82.665z
	 M80.57,100.676h23.521V79.534H80.57V100.676z M79.094,78.044h26.475v32.476H79.094V78.044z M76.462,113.152H108.2v-37.74H76.462
	V113.152z M139.5,72c0,37.279-30.221,67.5-67.5,67.5c-37.278,0-67.5-30.221-67.5-67.5C4.5,34.723,34.722,4.5,72,4.5
	C109.279,4.5,139.5,34.723,139.5,72 M144,72c0-39.764-32.236-72-72-72S0,32.236,0,72s32.236,72,72,72S144,111.764,144,72"/>
</svg>
